<svg width="29" height="19" viewBox="0 0 29 19" fill="none" xmlns="http://www.w3.org/2000/svg">
<path d="M18.565 14.2375C19.3529 14.2375 20.1331 14.0823 20.8611 13.7808C21.589 13.4793 22.2504 13.0373 22.8076 12.4802C23.3647 11.923 23.8067 11.2616 24.1082 10.5336C24.4098 9.80568 24.565 9.02547 24.565 8.23753C24.565 7.4496 24.4098 6.66939 24.1082 5.94143C23.8067 5.21348 23.3647 4.55204 22.8076 3.99489C22.2504 3.43774 21.589 2.99578 20.8611 2.69426C20.1331 2.39273 19.3529 2.23753 18.565 2.23753C16.9737 2.23753 15.4475 2.86967 14.3223 3.99489C13.1971 5.12011 12.565 6.64623 12.565 8.23753C12.565 9.82883 13.1971 11.355 14.3223 12.4802C15.4475 13.6054 16.9737 14.2375 18.565 14.2375ZM24.885 13.1435L28.465 16.7235C28.5604 16.8158 28.6365 16.9262 28.6888 17.0483C28.7411 17.1703 28.7686 17.3016 28.7697 17.4343C28.7708 17.5671 28.7454 17.6988 28.695 17.8216C28.6446 17.9445 28.5703 18.0561 28.4763 18.1499C28.3824 18.2438 28.2707 18.3179 28.1477 18.3681C28.0248 18.4183 27.8931 18.4435 27.7603 18.4423C27.6276 18.441 27.4964 18.4134 27.3744 18.3609C27.2524 18.3084 27.1421 18.2321 27.05 18.1365L23.47 14.5565C21.8624 15.8044 19.8398 16.3927 17.8137 16.2017C15.7877 16.0108 13.9106 15.0548 12.5645 13.5286C11.2185 12.0023 10.5046 10.0205 10.5684 7.98646C10.6321 5.95243 11.4686 4.01916 12.9076 2.58018C14.3466 1.1412 16.2799 0.3047 18.3139 0.240959C20.3479 0.177218 22.3298 0.89103 23.856 2.23708C25.3823 3.58314 26.3382 5.46025 26.5292 7.48629C26.7201 9.51233 26.1318 11.535 24.884 13.1425L24.885 13.1435Z" fill="#181725"/>
<rect x="0.42041" y="0.23703" width="8.85499" height="2.39923" rx="1.19961" fill="#181725"/>
<rect x="0.42041" y="7.67523" width="6.46414" height="2.39923" rx="1.19961" fill="#181725"/>
<rect x="0.42041" y="15.1138" width="8.85499" height="2.39923" rx="1.19961" fill="#181725"/>
</svg>
